<?xml version="1.0" standalone="no"?>
<!DOCTYPE svg PUBLIC "-//W3C//DTD SVG 20010904//EN"
 "http://www.w3.org/TR/2001/REC-SVG-20010904/DTD/svg10.dtd">
<svg version="1.0" xmlns="http://www.w3.org/2000/svg"
 width="1920.000000pt" height="1920.000000pt" viewBox="0 0 1920.000000 1920.000000"
 preserveAspectRatio="xMidYMid meet">
<metadata>
Created by potrace 1.14, written by Peter Selinger 2001-2017
</metadata>
<g transform="translate(0.000000,1920.000000) scale(0.100000,-0.100000)"
fill="#000000" stroke="none">
<path d="M9320 12565 c-9 -11 -17 -12 -30 -5 -13 7 -21 7 -25 0 -5 -8 -11 -7
-21 1 -10 8 -14 8 -14 0 0 -7 -10 -10 -25 -7 -15 3 -25 0 -25 -7 0 -7 -4 -6
-10 3 -5 8 -10 11 -10 5 0 -5 -15 -10 -32 -9 -18 0 -37 -2 -43 -5 -5 -3 -29
-6 -54 -8 -24 -1 -48 -8 -53 -15 -6 -11 -8 -11 -8 0 0 10 -5 10 -20 2 -11 -6
-25 -8 -30 -5 -6 3 -10 1 -10 -5 0 -7 -7 -10 -15 -7 -8 4 -17 2 -20 -3 -3 -5
-12 -7 -20 -3 -8 3 -15 1 -15 -5 0 -5 -6 -9 -12 -9 -24 1 -98 -16 -98 -22 0
-4 -8 -7 -17 -8 -10 0 -27 -3 -38 -6 -11 -3 -32 -8 -47 -12 -16 -4 -26 -10
-23 -14 2 -4 -6 -7 -18 -6 -12 1 -39 -7 -59 -17 -21 -11 -43 -16 -49 -12 -7 4
-9 3 -6 -3 6 -10 -37 -29 -55 -25 -5 1 -8 -2 -8 -7 0 -9 -48 -26 -63 -22 -5 1
-6 -3 -3 -8 4 -5 -7 -12 -24 -16 -16 -4 -30 -11 -30 -17 0 -6 -3 -8 -6 -5 -4
4 -20 -3 -35 -14 -16 -11 -29 -17 -29 -13 0 4 -7 -1 -16 -12 -8 -10 -13 -13
-9 -6 9 17 2 15 -25 -8 -12 -11 -27 -17 -31 -14 -5 3 -9 1 -9 -5 0 -6 -11 -13
-25 -17 -14 -3 -22 -10 -19 -15 3 -5 -3 -9 -14 -9 -10 0 -27 -9 -37 -20 -10
-11 -22 -17 -26 -14 -5 3 -9 1 -9 -5 0 -6 -15 -17 -34 -26 -19 -9 -37 -23 -40
-31 -3 -8 -12 -11 -23 -7 -10 3 -15 3 -11 -1 8 -10 -14 -36 -24 -29 -5 2 -8
-1 -8 -6 0 -6 -7 -11 -15 -11 -8 0 -15 -4 -15 -10 0 -5 -7 -10 -16 -10 -8 0
-12 -5 -9 -10 3 -6 -4 -14 -17 -19 -13 -5 -40 -25 -62 -45 -21 -20 -41 -36
-44 -36 -11 0 -60 -59 -54 -65 3 -3 -1 -3 -11 1 -9 3 -17 2 -17 -2 0 -15 -47
-64 -54 -57 -3 3 -6 1 -6 -5 0 -15 -37 -52 -52 -52 -6 0 -9 -3 -6 -6 3 -3 -12
-23 -34 -45 -22 -21 -37 -39 -33 -39 3 0 -10 -15 -29 -34 -19 -19 -31 -37 -28
-40 3 -3 1 -6 -5 -6 -6 0 -20 -15 -32 -32 -11 -18 -21 -28 -22 -23 0 6 -4 -1
-8 -15 -4 -14 -13 -24 -20 -22 -7 1 -10 -2 -6 -8 3 -5 1 -10 -5 -10 -6 0 -8
-4 -5 -10 3 -5 1 -10 -6 -10 -7 0 -9 -3 -6 -6 4 -4 -3 -15 -14 -25 -12 -10
-18 -23 -13 -30 4 -7 3 -9 -3 -6 -9 6 -24 -14 -27 -35 -1 -3 -10 -17 -22 -30
-11 -13 -19 -29 -16 -36 2 -7 -3 -15 -12 -18 -9 -3 -14 -10 -11 -14 3 -4 -2
-13 -10 -20 -8 -7 -12 -16 -9 -21 3 -5 2 -9 -3 -9 -8 0 -37 -56 -38 -75 -1 -5
-5 -9 -11 -8 -5 1 -11 -8 -11 -19 -1 -12 -8 -25 -15 -29 -7 -5 -9 -9 -4 -9 5
0 3 -7 -4 -15 -7 -8 -9 -15 -4 -15 5 0 2 -6 -6 -13 -9 -7 -15 -19 -15 -27 0
-8 -4 -18 -10 -22 -10 -7 -11 -11 -14 -44 0 -9 -6 -12 -13 -8 -7 4 -8 3 -4 -5
4 -6 0 -25 -8 -42 -9 -17 -13 -35 -10 -40 3 -5 0 -9 -6 -9 -6 0 -8 -4 -5 -10
3 -5 2 -10 -3 -10 -5 0 -9 -6 -10 -12 -6 -50 -10 -61 -23 -69 -12 -7 -12 -9 1
-9 13 0 13 -2 1 -9 -12 -8 -19 -32 -23 -78 -1 -7 -5 -13 -10 -13 -4 0 -8 -13
-8 -30 0 -17 -5 -30 -12 -30 -10 0 -9 -3 1 -9 9 -6 10 -11 2 -15 -6 -4 -9 -12
-6 -17 4 -5 2 -9 -4 -9 -5 0 -8 -9 -6 -20 2 -11 0 -22 -5 -25 -5 -3 -7 -12 -3
-20 3 -8 1 -15 -4 -15 -5 0 -9 -10 -8 -22 3 -31 -5 -49 -17 -42 -6 4 -5 -3 1
-15 8 -15 9 -21 1 -21 -6 0 -9 -4 -6 -9 4 -5 2 -21 -3 -34 -7 -18 -7 -27 2
-31 9 -3 9 -5 0 -5 -7 -1 -10 -8 -7 -16 4 -8 1 -15 -6 -15 -9 0 -10 -3 -2 -13
9 -10 7 -19 -5 -37 -9 -13 -12 -20 -6 -17 10 6 11 -50 1 -69 -2 -5 -6 -40 -7
-79 -2 -38 -5 -73 -8 -77 -2 -5 2 -8 9 -8 9 0 9 -3 -2 -10 -13 -9 -13 -10 0
-10 12 0 13 -2 1 -9 -11 -7 -11 -9 0 -14 9 -3 9 -6 2 -6 -8 -1 -9 -10 -4 -28
4 -16 4 -40 0 -55 -4 -16 -4 -28 1 -28 4 0 6 -8 3 -19 -3 -10 0 -22 6 -25 8
-5 8 -13 1 -27 -6 -10 -7 -19 -2 -19 5 0 8 -16 7 -35 0 -19 2 -35 5 -35 4 0 6
-20 5 -44 0 -25 3 -42 7 -40 4 3 8 -9 8 -25 0 -43 0 -44 12 -59 6 -7 8 -15 4
-19 -3 -3 2 -15 11 -26 11 -13 12 -17 4 -12 -11 6 -13 4 -6 -11 4 -10 10 -29
12 -41 3 -13 10 -23 15 -23 5 0 7 -4 3 -9 -3 -5 1 -29 9 -52 8 -24 13 -46 10
-50 -2 -4 1 -9 8 -11 10 -4 13 -14 20 -65 1 -7 5 -13 10 -13 5 0 7 -4 3 -9 -3
-5 -1 -12 4 -16 6 -3 8 -12 4 -20 -3 -8 0 -15 7 -15 6 0 8 -4 5 -10 -3 -5 -1
-10 4 -10 6 0 10 -3 10 -7 -1 -5 0 -10 1 -13 3 -9 10 -44 12 -62 1 -9 6 -14
10 -12 4 3 8 -3 8 -13 0 -10 7 -27 15 -37 8 -10 12 -23 9 -27 -3 -5 0 -9 5 -9
6 0 11 -9 11 -20 0 -11 5 -20 11 -20 5 0 7 -4 4 -10 -3 -5 -1 -10 6 -10 7 0
10 -3 6 -6 -3 -4 1 -13 9 -21 8 -8 11 -20 7 -26 -3 -7 -3 -9 2 -5 10 9 30 -12
39 -40 7 -20 17 -27 38 -23 5 0 7 -5 5 -12 -1 -7 8 -12 21 -11 12 0 22 -4 22
-10 0 -6 4 -6 11 1 11 11 50 3 93 -19 14 -7 16 -6 10 4 -6 10 -4 10 7 2 15
-11 61 -17 117 -16 17 0 32 -4 32 -10 0 -7 5 -6 15 2 12 10 20 6 45 -19 17
-17 29 -34 27 -38 -3 -5 1 -14 9 -21 8 -7 14 -9 14 -5 0 4 5 0 11 -10 8 -14
14 -16 25 -6 11 9 14 9 14 -1 0 -9 4 -9 17 1 14 12 16 12 8 0 -5 -10 -4 -12 3
-7 19 12 53 16 127 18 39 0 76 6 84 12 12 9 13 8 8 -7 -6 -15 -4 -16 13 -7 11
6 20 7 20 3 0 -4 5 -2 11 4 9 9 18 7 38 -5 24 -15 25 -15 13 0 -11 14 -11 16
5 13 10 -1 17 -8 16 -14 -2 -6 0 -10 5 -10 24 5 72 -16 78 -34 5 -15 8 -17 15
-6 7 12 9 12 9 0 0 -8 7 -11 19 -8 11 3 26 -4 36 -15 10 -12 24 -18 35 -15 11
3 21 0 24 -7 3 -7 5 -6 5 3 1 8 9 5 22 -10 11 -13 18 -18 14 -11 -3 6 -1 12 4
12 6 0 11 -5 11 -11 0 -5 5 -7 10 -4 6 3 10 0 10 -7 0 -9 3 -9 10 2 7 11 10
11 10 2 0 -7 5 -10 10 -7 6 3 10 2 10 -4 0 -5 9 -8 19 -6 10 2 29 -4 42 -13
13 -9 36 -15 51 -13 16 1 28 -2 28 -9 0 -6 4 -9 9 -6 4 3 17 -1 27 -8 11 -8
23 -11 29 -6 6 5 10 -2 11 -20 1 -21 -9 -38 -35 -62 -24 -23 -30 -25 -16 -8
11 14 0 6 -23 -18 -24 -23 -47 -40 -53 -37 -8 6 -13 -8 -10 -27 0 -4 -5 -5
-12 -3 -19 7 -50 -21 -41 -37 6 -9 3 -9 -10 1 -15 12 -17 12 -14 0 2 -8 -3
-13 -10 -11 -8 1 -11 -2 -7 -8 3 -5 -2 -10 -12 -10 -15 0 -16 -2 -3 -10 14 -9
7 -14 -13 -11 -5 1 -6 -3 -2 -9 3 -5 3 -16 -2 -22 -9 -16 -14 -37 -14 -60 0
-10 -5 -18 -11 -18 -7 0 -6 -5 1 -14 9 -10 9 -16 1 -21 -8 -5 -7 -11 2 -23 11
-13 11 -14 -2 -7 -12 7 -13 6 -3 -7 7 -8 14 -27 15 -42 1 -14 5 -26 9 -26 4 0
10 -7 13 -16 3 -8 2 -12 -4 -9 -6 3 -7 -1 -4 -9 3 -9 10 -13 15 -10 13 7 7
-19 -6 -28 -6 -5 -5 -8 3 -8 6 0 12 -4 12 -10 0 -5 -6 -7 -13 -4 -8 3 -14 -2
-14 -10 0 -11 6 -12 25 -5 22 8 23 8 12 -6 -7 -8 -8 -15 -2 -15 8 0 18 -32 24
-77 1 -7 8 -13 16 -13 9 0 12 -3 9 -6 -3 -4 -2 -15 4 -25 7 -13 6 -19 -1 -19
-7 0 -8 -6 -1 -19 9 -17 8 -18 -12 -14 -12 3 -26 9 -32 13 -5 5 -19 10 -30 12
-11 1 -22 5 -25 8 -3 3 -18 13 -35 22 -16 10 -29 23 -27 29 2 6 -4 9 -12 6 -8
-3 -20 2 -28 11 -8 10 -8 13 -1 9 6 -4 15 -3 18 3 4 6 3 10 -2 9 -23 -4 -33 3
-33 26 0 14 -3 24 -7 24 -20 -3 -33 2 -33 14 0 19 -39 38 -83 40 -20 1 -37 6
-37 11 0 5 -7 3 -15 -4 -14 -12 -20 -7 -16 14 1 5 -4 4 -13 -3 -10 -8 -16 -9
-21 -1 -3 6 -11 8 -16 5 -5 -4 -9 -1 -9 5 0 6 -8 5 -22 -4 -13 -7 -31 -12 -40
-11 -10 2 -18 -3 -18 -11 0 -8 -5 -14 -11 -14 -5 0 -7 -4 -4 -10 3 -5 1 -10
-4 -10 -6 0 -11 4 -11 10 0 5 -7 7 -15 4 -12 -5 -13 -9 -4 -21 7 -8 8 -13 3
-12 -23 4 -25 -2 -7 -18 11 -10 26 -32 33 -50 8 -17 19 -29 25 -25 5 3 4 -1
-3 -10 -9 -11 -10 -18 -2 -23 5 -3 10 -15 10 -26 0 -13 4 -18 12 -13 7 4 8 3
4 -5 -4 -6 -2 -18 4 -26 7 -8 9 -15 4 -15 -5 0 -2 -5 6 -10 12 -8 12 -10 1
-10 -9 0 -7 -7 8 -19 12 -11 22 -23 23 -28 0 -4 5 -7 10 -5 6 2 8 -3 5 -11 -4
-10 1 -13 19 -9 14 2 24 0 24 -7 0 -7 8 -11 18 -9 9 2 16 -2 15 -7 -1 -6 10
-11 25 -10 15 0 33 -6 41 -13 7 -7 20 -11 27 -8 8 3 14 0 14 -5 0 -6 9 -9 20
-6 14 3 20 0 20 -11 0 -8 3 -12 7 -9 3 4 13 1 21 -6 8 -6 23 -13 34 -13 36 -3
39 -4 32 -16 -5 -8 0 -7 11 2 11 9 16 10 11 3 -4 -8 -1 -13 9 -13 10 0 13 5 9
12 -4 7 -3 8 4 4 6 -4 8 -14 5 -22 -5 -14 -3 -15 15 -5 15 8 22 8 22 1 0 -5
-4 -10 -10 -10 -5 0 -10 -4 -10 -10 0 -12 22 -9 32 5 5 6 8 6 8 -1 0 -7 12
-19 26 -29 15 -9 24 -13 20 -7 -3 5 1 13 10 16 8 3 12 2 9 -4 -3 -6 -1 -10 5
-10 6 0 8 -4 5 -10 -3 -6 1 -7 9 -4 9 3 13 11 9 18 -3 6 2 3 13 -6 16 -14 23
-15 34 -5 8 7 11 8 7 1 -4 -7 0 -15 9 -18 21 -8 24 -8 24 5 0 5 -5 7 -12 3 -7
-4 -8 -3 -4 4 4 6 13 9 21 6 8 -4 13 -9 11 -13 -2 -3 13 -6 34 -6 24 -1 37 3
34 10 -3 5 1 2 9 -8 14 -17 15 -17 22 0 6 17 7 17 21 -1 8 -11 14 -14 14 -8 0
14 21 12 32 -3 5 -6 8 -4 8 5 0 12 2 12 8 2 10 -16 45 -4 35 12 -4 6 1 5 10
-3 15 -12 17 -11 17 4 0 14 3 15 14 6 11 -9 16 -9 22 0 5 8 3 10 -7 4 -8 -5
-10 -4 -6 0 10 11 39 16 33 6 -7 -10 32 -7 41 4 5 4 3 5 -4 1 -6 -3 -14 -2
-17 3 -7 10 20 9 30 -2 4 -4 18 -7 31 -7 13 0 23 -5 23 -11 0 -8 4 -9 13 0 8
6 17 8 21 4 3 -4 17 -8 29 -10 12 -2 29 -6 37 -10 8 -3 34 -7 58 -8 25 -1 47
-7 53 -16 7 -11 9 -11 9 0 0 10 3 11 14 2 11 -9 15 -9 19 1 4 11 6 10 6 0 1
-7 6 -10 11 -7 6 3 10 1 10 -5 0 -7 6 -8 19 -1 10 6 21 8 24 5 3 -3 38 -6 79
-7 40 -1 76 -6 80 -12 5 -6 8 -5 8 3 0 8 5 10 12 6 21 -13 59 -14 51 -1 -5 9
-3 9 8 1 22 -17 59 -24 59 -11 0 7 5 5 10 -3 7 -11 10 -11 10 -2 0 10 5 10 20
2 15 -8 20 -8 20 1 0 8 4 8 15 -1 12 -10 15 -10 16 1 0 8 4 5 9 -6 5 -11 9
-14 9 -6 1 7 7 11 16 7 8 -3 15 0 15 6 0 6 6 5 17 -3 11 -10 14 -10 9 -1 -5 8
0 12 14 12 14 0 19 -4 15 -12 -4 -7 -1 -6 7 2 15 17 36 19 57 6 9 -6 12 -5 8
1 -4 5 6 10 23 10 18 0 31 -6 33 -16 4 -13 5 -13 6 1 1 15 5 16 28 7 l27 -10
-19 23 c-15 16 -15 19 -3 9 9 -7 22 -10 28 -6 5 3 10 1 10 -6 0 -7 7 -4 16 7
8 10 13 14 10 8 -8 -15 17 -25 34 -14 8 5 23 4 34 -2 19 -10 20 -10 7 6 -12
14 -12 16 2 11 8 -4 18 -1 22 4 3 6 11 9 16 6 5 -4 18 -8 30 -10 16 -3 18 -1
10 8 -7 9 -5 13 9 13 10 0 16 -4 14 -8 -3 -4 2 -5 10 -2 9 3 13 10 10 15 -3 5
2 6 11 2 10 -3 21 0 26 8 7 12 9 12 9 -1 0 -12 2 -12 8 -2 8 11 24 16 87 24
11 2 23 8 27 13 5 6 8 4 8 -5 0 -13 1 -13 10 0 8 13 10 13 10 1 0 -11 4 -10
16 5 15 19 16 19 10 -1 -6 -19 -5 -19 7 -3 8 10 17 15 20 11 4 -3 7 -1 7 6 0
7 5 9 10 6 6 -4 18 -1 27 7 14 11 16 11 9 -2 -4 -8 0 -6 9 5 9 11 19 20 23 20
4 0 6 4 4 8 -1 5 3 5 9 1 6 -3 15 0 20 7 6 10 9 11 9 2 0 -7 5 -13 11 -13 5 0
7 5 4 10 -3 6 -1 10 5 10 6 0 8 4 5 10 -4 6 1 7 11 3 10 -3 15 -2 12 3 -6 9
10 29 26 32 16 3 15 30 -1 43 -13 11 -11 15 9 32 13 10 17 15 9 11 -10 -5 -12
-3 -5 7 12 19 16 51 6 45 -5 -3 -9 1 -9 9 0 8 5 11 11 8 6 -4 4 2 -4 12 -9 11
-10 16 -2 11 7 -4 12 -2 12 5 0 6 -8 9 -20 6 -20 -5 -20 -5 1 24 11 16 23 29
26 29 3 0 -1 -7 -8 -17 -13 -15 -12 -15 8 -3 12 8 20 17 18 20 -2 3 8 10 21
17 13 6 22 7 18 2 -3 -5 1 -9 9 -9 14 0 55 -38 57 -55 1 -5 6 -9 10 -8 4 1 4
-13 0 -32 -5 -22 -4 -33 2 -29 5 3 8 0 6 -7 -1 -8 2 -14 7 -14 6 0 9 4 7 9 -2
5 4 6 13 2 9 -3 13 -2 10 3 -3 6 3 14 12 20 10 6 15 11 11 11 -4 0 1 15 10 32
12 21 30 36 50 42 18 5 32 14 32 20 0 6 5 4 10 -4 8 -13 10 -12 10 3 0 10 5
15 10 12 6 -3 10 -1 10 5 0 6 5 8 13 4 7 -5 6 0 -3 11 -10 13 -11 16 -2 11 8
-5 19 -1 28 10 9 11 13 13 9 7 -3 -7 -3 -13 0 -13 11 0 35 28 35 40 0 6 4 9 8
6 5 -3 9 1 9 9 0 8 -4 12 -9 9 -4 -3 -8 0 -8 6 0 6 -11 10 -23 8 -13 -1 -32 5
-41 15 -12 11 -22 14 -30 9 -6 -5 -21 -8 -34 -6 -13 2 -21 0 -18 -4 3 -5 -1
-9 -9 -9 -8 0 -11 5 -8 10 4 7 -1 8 -12 3 -14 -5 -16 -4 -7 7 9 10 8 17 0 25
-7 7 -9 12 -5 12 4 0 3 10 -4 21 -7 14 -7 19 0 15 7 -5 7 2 0 24 -6 17 -9 36
-6 44 3 7 0 19 -6 25 -8 8 -8 11 2 11 7 0 9 5 5 12 -10 15 -11 77 -1 71 6 -3
9 6 9 27 0 3 -3 16 -7 30 -7 24 -7 24 9 5 l16 -20 -7 20 c-4 11 -13 26 -20 33
-7 7 -13 18 -13 25 0 6 7 2 16 -9 15 -19 16 -19 9 1 -12 36 -13 50 -1 65 9 13
9 13 -5 3 -19 -15 -33 -5 -18 13 7 9 6 14 -3 20 -7 4 -10 4 -6 -1 12 -13 -12
-34 -30 -28 -13 4 -12 2 3 -10 11 -8 24 -13 29 -10 5 4 6 0 1 -7 -6 -9 -4 -11
6 -5 11 7 11 5 -1 -11 -22 -29 -24 -30 -16 -10 5 13 2 17 -9 13 -8 -4 -17 -1
-21 5 -4 7 -3 8 4 4 18 -11 14 5 -3 18 -15 11 -31 61 -16 52 4 -3 8 1 8 9 0 8
-4 12 -8 9 -4 -2 -10 0 -14 6 -3 5 -2 10 3 10 5 0 9 7 9 15 0 8 -4 12 -8 9 -4
-2 -10 0 -14 6 -3 5 1 10 10 10 12 0 15 5 11 16 -5 12 -2 15 10 10 14 -5 15
-4 5 8 -9 11 -6 13 19 11 17 -1 33 2 37 8 4 6 1 7 -7 2 -9 -5 -11 -4 -6 4 5 8
12 9 20 2 8 -7 19 -2 35 15 13 13 27 21 32 18 5 -3 9 -1 9 4 0 8 6 10 50 14
10 1 17 4 15 7 -3 2 3 10 13 17 12 9 21 9 29 2 9 -8 15 -4 22 13 5 13 10 18
10 10 1 -11 5 -10 16 5 10 13 14 15 15 5 0 -9 7 -6 19 8 11 13 25 20 30 16 6
-3 11 -1 11 5 0 7 7 9 16 6 8 -3 12 -2 9 4 -3 6 1 10 9 10 9 0 16 4 16 9 0 5
8 7 19 4 22 -5 81 47 81 72 0 9 4 14 9 10 5 -3 12 -1 16 4 3 5 14 8 25 6 11
-2 20 1 20 7 0 7 6 6 15 -2 8 -7 15 -8 15 -3 0 10 50 11 66 0 6 -3 14 -3 18 0
13 13 90 13 98 0 6 -9 8 -9 8 1 0 9 5 10 18 3 13 -7 23 -6 30 1 7 7 12 9 12 5
0 -4 10 -3 21 4 12 6 19 7 16 1 -4 -5 7 -9 23 -8 17 1 30 4 30 8 0 3 8 5 17 4
18 -3 70 41 69 57 -1 5 7 13 17 18 9 6 17 19 17 29 0 11 5 20 11 20 5 0 7 5 4
10 -3 6 -2 10 4 10 6 0 8 6 5 14 -3 8 0 17 5 21 6 3 9 11 6 16 -4 5 -1 9 5 9
6 0 9 4 6 9 -3 5 1 14 9 21 12 10 12 16 4 26 -9 11 -7 15 5 20 9 3 14 9 11 13
-2 4 2 18 8 32 7 13 12 31 12 39 -1 8 3 24 9 35 10 21 17 54 20 93 0 12 5 22
9 22 5 0 5 5 2 10 -3 6 -1 10 6 10 7 0 9 3 6 7 -4 3 -2 12 4 20 9 10 8 13 -2
13 -9 0 -10 3 -4 8 13 9 37 101 30 113 -4 5 -2 9 2 9 5 0 9 8 10 18 4 47 16
97 24 100 5 2 5 11 -1 21 -5 10 -6 22 -2 26 8 8 9 13 11 66 1 29 4 38 14 33 9
-5 9 -4 1 5 -6 7 -8 31 -5 59 4 26 6 68 6 94 0 27 2 48 5 48 3 0 4 29 4 65 -2
46 1 63 10 58 8 -5 8 -3 0 8 -6 8 -12 48 -13 89 -3 89 -8 165 -11 165 -1 0 -3
27 -5 60 -4 53 -11 100 -15 100 -1 0 -3 14 -5 30 -2 17 -7 41 -10 55 -4 14 -9
36 -11 50 -5 32 -12 65 -14 65 -2 0 -10 32 -14 55 -11 62 -20 89 -28 84 -6 -4
-5 4 2 16 7 12 8 20 3 17 -5 -3 -15 17 -23 46 -7 29 -17 58 -23 65 -5 6 -6 12
-2 12 4 0 2 7 -5 15 -7 8 -10 15 -6 15 4 0 -2 17 -13 39 -11 21 -17 41 -14 45
4 3 0 6 -7 6 -7 0 -10 3 -7 7 4 3 -1 15 -10 26 -10 11 -12 17 -4 12 9 -5 7 1
-4 19 -10 14 -13 26 -9 26 5 0 4 4 -2 8 -14 10 -56 92 -46 92 4 0 2 4 -4 8 -5
4 -18 24 -27 44 -10 20 -22 40 -27 43 -6 4 -8 11 -5 16 4 5 1 9 -4 9 -6 0 -11
7 -11 15 0 8 -5 15 -11 15 -5 0 -7 5 -4 10 3 6 1 10 -5 10 -6 0 -9 4 -6 9 3 5
-1 12 -10 15 -9 4 -14 9 -11 12 3 4 -3 15 -14 27 -10 11 -19 26 -19 33 0 6 -6
14 -14 17 -8 3 -22 22 -31 41 -10 20 -21 36 -26 36 -5 0 -9 4 -9 10 0 11 -24
43 -57 75 -13 12 -23 27 -23 32 0 6 -27 38 -60 71 -33 34 -60 66 -60 72 0 6
-3 9 -7 7 -10 -4 -82 70 -75 78 3 3 0 5 -6 5 -16 0 -78 60 -74 71 1 5 -4 9
-11 9 -7 0 -23 9 -35 20 -12 11 -26 20 -32 20 -6 0 -9 3 -7 8 5 7 -10 25 -28
32 -5 2 -23 16 -38 30 -16 14 -32 25 -35 24 -4 0 -22 14 -39 33 -18 18 -33 29
-33 24 0 -6 -12 1 -27 15 -16 15 -41 33 -58 41 -16 9 -35 22 -43 29 -7 8 -18
12 -23 9 -5 -4 -9 -3 -9 2 0 4 -23 19 -50 32 -28 14 -50 29 -50 34 0 4 -4 5
-10 2 -5 -3 -10 -1 -10 5 0 7 -7 10 -15 6 -8 -3 -15 -1 -15 4 0 6 -7 10 -16
10 -9 0 -28 8 -42 19 -15 10 -44 24 -64 32 -21 7 -38 17 -38 22 0 4 -4 5 -10
2 -5 -3 -10 0 -10 7 0 11 -2 11 -9 0 -6 -10 -10 -10 -21 3 -7 9 -19 14 -27 11
-7 -3 -13 1 -13 10 0 8 -5 12 -10 9 -6 -4 -16 -2 -23 3 -7 6 -15 11 -19 11
-43 7 -68 15 -68 23 0 6 -8 8 -19 5 -10 -2 -27 0 -37 6 -10 6 -28 13 -38 14
-11 2 -25 8 -33 14 -9 9 -13 8 -13 0 0 -8 -7 -8 -21 3 -12 8 -28 12 -35 9 -8
-3 -14 -1 -14 5 0 6 -11 9 -25 7 -14 -1 -25 1 -25 6 0 5 -7 6 -15 3 -8 -4 -15
-2 -15 2 0 8 -38 15 -97 17 -12 1 -19 5 -16 11 4 5 -3 7 -15 4 -12 -4 -22 -3
-22 2 0 4 -11 6 -25 5 -14 -2 -25 0 -25 3 0 4 -19 8 -42 8 -88 3 -129 8 -134
16 -3 4 -14 3 -25 -2 -14 -8 -19 -7 -19 2 0 9 -3 9 -10 -2 -5 -8 -10 -10 -10
-4 0 7 -37 11 -114 10 -63 -1 -112 2 -109 7 8 13 -4 7 -17 -8z m-776 -4331 c3
-8 2 -12 -4 -9 -6 3 -10 10 -10 16 0 14 7 11 14 -7z m-722 -576 c-7 -7 -12 -8
-12 -2 0 14 12 26 19 19 2 -3 -1 -11 -7 -17z m-15 -32 c0 -8 -6 -12 -15 -9
-11 5 -11 7 0 14 7 5 13 9 14 9 0 0 1 -6 1 -14z m670 -56 c13 -17 7 -33 -10
-24 -7 3 -1 -3 12 -14 l24 -20 -24 -12 c-13 -7 -21 -9 -17 -5 4 4 2 17 -4 29
-26 49 -12 85 19 46z m239 -2 c4 4 3 -1 -5 -10 -12 -16 -41 -15 -41 1 0 15 13
21 25 11 7 -5 16 -6 21 -2z m-265 -49 c1 -5 2 -17 2 -26 2 -24 17 -34 36 -24
9 5 21 6 27 4 6 -2 14 5 16 15 6 22 55 23 50 2 -2 -11 0 -11 11 -1 12 9 18 8
30 -4 9 -8 20 -15 26 -15 11 0 13 -5 14 -37 1 -10 6 -21 12 -25 7 -5 6 -14 -2
-27 -9 -15 -10 -22 -1 -27 7 -5 8 -2 3 7 -5 8 -4 11 0 6 12 -10 17 -50 6 -43
-5 4 -11 1 -13 -5 -3 -8 -17 -5 -45 9 -22 12 -43 19 -46 16 -3 -3 -11 3 -18
14 -7 11 -18 18 -25 15 -7 -2 -22 5 -33 16 -12 12 -21 18 -21 14 -1 -11 -30
29 -30 40 0 5 6 4 14 -2 11 -9 16 -9 22 1 4 7 3 10 -1 5 -5 -4 -17 1 -28 10
-12 11 -17 12 -12 4 6 -10 4 -12 -4 -6 -8 4 -7 -4 3 -24 9 -17 14 -31 11 -31
-15 0 -20 3 -18 11 2 4 -3 6 -10 3 -17 -6 -19 25 -3 45 9 11 6 13 -14 6 l-25
-8 24 20 c17 14 21 22 13 27 -7 4 -12 3 -12 -2 0 -5 -7 -9 -16 -9 -15 0 -14 2
1 13 10 8 23 11 28 7 6 -4 8 0 4 10 -4 11 -2 14 9 10 7 -3 15 -9 15 -14z m213
2 c13 -14 14 -21 5 -27 -7 -4 -10 -3 -6 3 4 6 -3 13 -14 16 -12 3 -18 10 -14
16 8 14 9 14 29 -8z m1880 -42 c-3 -5 -10 -7 -15 -3 -5 3 -7 10 -3 15 3 5 10
7 15 3 5 -3 7 -10 3 -15z m-2044 7 c0 -2 -7 -6 -15 -10 -8 -3 -15 -1 -15 4 0
6 7 10 15 10 8 0 15 -2 15 -4z m2107 -191 c0 -8 -4 -12 -9 -9 -5 3 -6 10 -3
15 9 13 12 11 12 -6z m-2427 -59 c0 -2 -7 -7 -16 -10 -8 -3 -12 -2 -9 4 6 10
25 14 25 6z"/>
<path d="M8450 7562 c0 -5 7 -9 15 -9 8 0 12 4 9 9 -3 4 -9 8 -15 8 -5 0 -9
-4 -9 -8z"/>
<path d="M8547 7489 c7 -7 15 -10 18 -7 3 3 -2 9 -12 12 -14 6 -15 5 -6 -5z"/>
<path d="M8430 7479 c0 -5 5 -7 10 -4 6 3 10 8 10 11 0 2 -4 4 -10 4 -5 0 -10
-5 -10 -11z"/>
<path d="M10796 8207 c3 -10 9 -15 12 -12 3 3 0 11 -7 18 -10 9 -11 8 -5 -6z"/>
<path d="M7870 7176 c0 -8 5 -18 10 -21 6 -4 10 -14 8 -23 -1 -10 3 -32 11
-49 7 -18 11 -39 8 -47 -3 -8 -1 -16 5 -18 6 -2 12 -17 14 -33 3 -36 22 -103
36 -129 7 -14 6 -16 -4 -11 -7 4 -4 -2 8 -12 26 -22 36 -46 39 -98 8 -108 16
-231 16 -240 0 -5 -2 -36 -4 -67 -3 -42 -1 -58 9 -62 8 -3 14 -1 14 5 0 6 4 8
9 5 10 -6 91 66 91 81 0 6 7 14 16 17 8 3 12 10 9 16 -3 5 -2 10 3 10 20 0 33
69 33 175 1 73 -2 92 -14 113 -5 6 -6 12 -3 12 3 0 -1 15 -9 34 -8 18 -11 36
-8 40 4 3 1 6 -6 6 -7 0 -9 5 -6 10 3 6 2 10 -4 10 -5 0 -12 14 -16 30 -4 17
-11 28 -16 24 -5 -3 -9 4 -9 16 0 13 -4 19 -12 14 -6 -4 -8 -3 -4 4 3 6 -4 21
-16 34 -13 13 -34 37 -48 53 -31 37 -120 111 -120 99 0 -4 -5 -3 -12 4 -16 16
-28 15 -28 -2z m256 -451 c-2 -7 0 -18 4 -26 6 -9 3 -21 -8 -33 -13 -15 -14
-18 -2 -12 8 4 6 0 -5 -8 -18 -15 -20 -15 -29 6 -9 25 -15 108 -8 121 6 12 53
-35 48 -48z"/>
<path d="M10638 7051 c10 -6 9 -11 -4 -22 -16 -12 -17 -12 -9 1 8 13 6 13 -7
2 -9 -7 -15 -22 -13 -32 3 -13 -1 -17 -12 -13 -12 5 -12 7 -1 14 10 7 9 9 -4
9 -10 0 -18 4 -18 9 0 5 -9 7 -20 4 -11 -3 -17 -10 -13 -16 4 -6 1 -7 -6 -2
-21 12 -81 15 -81 3 0 -7 -4 -7 -13 0 -10 9 -17 6 -30 -8 -9 -11 -12 -20 -6
-20 5 0 7 -5 4 -11 -4 -6 -13 -8 -21 -5 -8 3 -11 0 -7 -9 3 -8 10 -12 16 -8 6
3 7 1 3 -5 -3 -6 -15 -9 -26 -7 -11 2 -20 -1 -20 -6 0 -6 -4 -8 -9 -5 -5 3
-15 -2 -22 -11 -12 -14 -12 -16 1 -9 13 7 13 6 0 -6 -8 -7 -16 -21 -16 -31 -2
-15 1 -16 14 -5 15 11 14 10 -1 -14 -10 -17 -13 -29 -7 -33 6 -4 8 -11 5 -16
-4 -5 -1 -9 4 -9 6 0 11 -5 11 -11 0 -5 -5 -7 -12 -3 -7 5 -8 3 -3 -6 6 -10
11 -9 21 5 7 10 11 22 8 27 -3 4 2 11 11 14 14 6 14 9 3 16 -10 8 -10 9 2 5
17 -4 19 -27 6 -77 -12 -50 -14 -80 -6 -80 10 0 8 -20 -3 -37 -5 -7 -4 -13 2
-13 7 0 7 -9 3 -22 -5 -13 -8 -75 -8 -138 1 -95 4 -115 16 -116 8 0 20 3 25 6
6 3 34 6 63 6 28 -1 52 2 52 6 0 3 8 5 18 4 22 -4 63 15 56 25 -3 5 -1 9 3 9
5 0 9 28 10 63 2 103 1 99 17 85 9 -9 11 -20 5 -35 -4 -12 -4 -25 0 -28 5 -3
5 -23 0 -45 -5 -22 -7 -51 -3 -64 5 -22 10 -23 52 -20 25 3 53 10 61 17 9 8
12 8 8 1 -5 -9 2 -9 26 0 46 16 58 26 50 39 -4 7 1 6 10 -2 15 -12 17 -12 11
3 -3 9 -2 16 3 16 5 0 11 25 12 56 2 55 1 56 -21 51 -21 -5 -21 -5 -6 7 17 12
17 14 0 30 -22 19 -36 21 -26 4 5 -8 -2 -6 -16 3 -23 15 -36 64 -20 74 3 2 5
21 5 42 0 21 3 40 7 44 4 3 2 19 -4 37 -10 25 -17 31 -38 28 -17 -2 -27 2 -27
10 0 10 6 10 21 3 20 -10 20 -10 2 5 -14 11 -23 13 -32 5 -8 -7 -14 -6 -20 2
-4 8 -3 9 4 5 8 -5 10 -1 6 9 -6 14 -8 13 -21 -5 -8 -11 -11 -25 -8 -30 3 -6
2 -10 -2 -10 -5 0 -10 -10 -10 -22 -9 -137 -24 -189 -53 -183 -9 2 -28 -2 -42
-9 -13 -7 -31 -13 -40 -13 -18 0 -17 11 6 154 1 7 5 15 8 19 4 3 4 12 2 19 -3
7 0 16 5 20 6 3 9 11 5 16 -3 5 -1 16 5 23 6 7 12 25 13 40 l2 27 17 -22 16
-22 18 26 c9 15 21 24 26 21 5 -3 6 3 2 12 -4 11 -2 15 4 11 6 -4 14 1 19 11
12 26 12 52 1 52 -6 0 -2 9 9 21 10 11 14 20 9 19 -21 -5 -27 1 -17 13 8 10 6
13 -11 14 -14 2 -17 -1 -9 -6z m15 -102 c-8 -8 -13 -7 -18 2 -6 8 -4 10 5 4
10 -6 12 -4 6 11 -6 15 -5 17 5 7 9 -10 10 -16 2 -24z m-53 17 c0 -2 -7 -9
-15 -16 -13 -11 -14 -10 -9 4 5 14 24 23 24 12z m-23 -58 c-3 -8 -6 -5 -6 6
-1 11 2 17 5 13 3 -3 4 -12 1 -19z"/>
<path d="M9823 7034 c4 -8 -16 -10 -68 -9 -49 2 -72 -1 -68 -8 4 -6 0 -8 -8
-5 -12 5 -15 -10 -16 -76 -4 -180 -4 -187 14 -214 14 -20 18 -47 18 -107 0
-44 5 -83 10 -87 6 -5 5 -8 -3 -8 -8 0 -10 -5 -6 -12 4 -6 8 -45 10 -86 1 -41
7 -79 13 -85 14 -14 151 -16 151 -2 0 5 5 3 10 -5 7 -11 10 -12 10 -2 0 8 6
12 13 9 15 -5 70 50 62 63 -3 6 -1 10 4 10 16 0 13 80 -5 133 -9 26 -19 47
-23 47 -4 0 -8 7 -8 15 0 8 4 15 9 15 4 0 8 4 8 10 0 5 8 19 17 30 32 37 64
182 43 195 -5 3 -7 12 -3 20 3 8 -1 15 -8 15 -7 0 -10 3 -6 6 3 3 -5 18 -19
32 -13 15 -24 30 -24 34 0 5 -5 8 -11 8 -14 0 -40 26 -32 33 3 4 -4 5 -15 2
-13 -2 -26 3 -32 13 -5 9 -10 13 -10 8 0 -5 -8 -2 -17 5 -9 8 -14 9 -10 3z m7
-249 c-10 -12 -10 -15 0 -15 10 0 9 -4 -1 -16 -12 -15 -14 -14 -19 2 -4 10 0
25 9 34 20 20 29 16 11 -5z m10 -295 c0 -5 0 -13 -1 -16 0 -4 5 -11 13 -15 9
-6 9 -9 1 -9 -6 0 -13 -8 -16 -17 -3 -14 -6 -12 -15 9 -12 28 -7 58 9 58 5 0
9 -4 9 -10z"/>
<path d="M8207 7012 c-13 -3 -17 -12 -15 -38 1 -19 7 -34 12 -34 6 0 6 -4 -1
-11 -8 -8 -7 -24 2 -57 6 -26 11 -55 9 -65 -1 -9 1 -17 5 -17 24 0 36 -103 34
-306 l-2 -120 53 0 53 1 -1 67 c-3 79 5 99 23 61 8 -16 17 -36 22 -45 5 -10 9
-25 9 -33 0 -8 4 -15 10 -15 5 0 7 -6 4 -14 -12 -31 27 -24 59 11 37 38 38 57
6 92 -11 11 -19 24 -19 28 0 5 -6 15 -13 23 -24 28 -41 80 -27 80 21 0 47 85
44 143 -2 33 -6 63 -11 66 -4 3 -8 12 -9 19 -2 29 -5 33 -14 27 -5 -3 -10 1
-10 9 0 23 -42 67 -58 61 -7 -2 -10 0 -7 5 3 5 -7 15 -22 22 -15 7 -31 17 -35
22 -3 5 -19 10 -35 11 -16 1 -33 4 -38 6 -6 3 -18 4 -28 1z m148 -212 c-3 -5
-2 -11 3 -14 5 -3 8 -19 8 -37 -1 -39 -26 -53 -26 -15 0 14 1 28 3 29 1 2 -4
11 -12 20 -9 12 -10 17 -2 17 7 0 9 4 6 10 -3 6 1 7 9 4 9 -3 14 -10 11 -14z"/>
<path d="M10140 6970 c-4 -8 -11 -28 -15 -45 -12 -53 -16 -69 -27 -110 -5 -22
-11 -52 -11 -67 -1 -16 -5 -28 -8 -28 -3 0 -6 -6 -7 -12 -4 -48 -11 -113 -12
-113 -2 0 -6 -17 -14 -50 -2 -11 -5 -20 -6 -20 -1 0 -3 -25 -5 -55 -1 -30 -4
-55 -5 -55 -1 0 -3 -10 -6 -22 -4 -25 24 -47 45 -33 8 4 25 2 40 -6 16 -8 27
-10 29 -4 2 6 7 8 11 5 4 -2 8 12 9 31 1 19 4 39 7 44 4 6 2 10 -3 10 -10 0 1
66 13 78 12 12 23 -20 23 -72 2 -91 15 -112 58 -96 14 6 26 5 29 0 7 -12 45 6
45 21 0 6 -6 7 -12 3 -10 -6 -10 -5 -1 8 7 8 10 17 8 20 -9 9 -16 49 -21 123
-10 150 -10 195 1 195 5 0 4 4 -4 9 -7 5 -10 14 -7 20 4 6 1 11 -6 11 -9 0 -9
3 2 10 8 5 10 10 5 10 -6 0 -10 19 -9 43 1 23 3 42 4 42 1 0 2 23 3 51 2 53 2
53 -60 57 -13 0 -23 4 -23 7 0 13 -62 4 -70 -10z m60 -304 c0 -11 -19 -15 -25
-6 -3 5 1 10 9 10 9 0 16 -2 16 -4z"/>
<path d="M8588 6968 c-4 -37 -6 -74 -12 -193 -7 -127 -11 -190 -21 -270 -2
-22 -7 -63 -10 -91 l-5 -52 32 0 c18 -1 47 -3 63 -4 l30 -3 3 60 c3 81 9 102
27 102 16 0 17 -7 18 -103 0 -43 4 -61 14 -62 60 -6 88 -2 100 13 7 10 10 22
6 28 -3 5 -7 21 -8 36 -5 46 -22 146 -25 146 -1 0 -3 9 -4 20 -8 61 -32 180
-36 180 -2 0 -9 33 -15 65 -2 14 -4 25 -5 25 -1 0 -4 13 -6 30 -6 35 -31 53
-81 57 -7 1 -13 6 -13 11 0 6 -3 7 -6 4 -4 -3 -15 -2 -25 4 -14 7 -19 6 -21
-3z m112 -305 c0 -24 -11 -35 -25 -25 -13 9 -13 55 0 64 12 9 25 -11 25 -39z"/>
<path d="M9025 6939 c-4 -6 -16 -9 -26 -6 -11 3 -19 1 -19 -5 0 -5 -4 -6 -10
-3 -5 3 -10 1 -10 -4 0 -6 -6 -11 -12 -11 -15 -1 -70 -72 -76 -97 -2 -10 -5
-27 -7 -38 -2 -11 -4 -20 -5 -20 -7 0 -5 -83 3 -92 6 -8 6 -13 0 -13 -11 0
-11 -36 0 -46 4 -4 7 -16 7 -26 0 -10 5 -28 12 -41 6 -12 16 -31 21 -42 6 -11
16 -31 23 -44 12 -23 74 -85 74 -74 0 3 7 0 15 -7 8 -6 19 -9 25 -5 5 3 10 1
10 -5 0 -8 13 -11 38 -8 63 8 74 13 115 56 47 49 58 56 79 57 33 0 47 -16 38
-41 -5 -12 -7 -30 -5 -40 2 -11 4 -22 4 -26 1 -3 16 -5 34 -4 17 1 40 -2 50
-6 9 -5 17 -5 17 0 0 5 7 9 15 9 8 0 15 -4 15 -9 0 -11 34 22 36 34 1 4 2 13
3 18 2 20 21 10 27 -15 3 -14 10 -22 15 -19 5 3 9 0 9 -5 0 -12 69 -15 85 -3
6 4 10 43 10 87 0 44 2 96 5 115 3 19 3 52 -1 73 -3 21 -2 40 3 43 4 3 6 10 3
15 -10 15 -10 143 0 158 5 9 4 12 -2 8 -7 -4 -10 3 -9 17 0 13 4 22 8 20 4 -2
9 -1 12 4 2 4 -5 9 -16 9 -12 1 -25 8 -29 15 -7 10 -9 10 -9 -2 0 -13 -1 -13
-10 0 -5 8 -10 11 -10 7 0 -4 -9 -3 -19 3 -23 12 -37 -3 -33 -36 2 -11 -5 -27
-14 -35 -12 -9 -15 -10 -10 -1 4 7 2 12 -7 12 -9 0 -14 9 -13 23 1 14 -4 21
-13 19 -11 -2 -12 0 -3 11 9 11 6 13 -18 9 -17 -2 -30 0 -30 4 0 14 -55 11
-69 -3 -6 -7 -8 -13 -2 -13 5 0 7 -9 4 -20 -3 -11 0 -27 7 -35 11 -13 10 -14
-6 -8 -16 6 -17 5 -6 -9 11 -14 10 -17 -10 -24 -13 -4 -27 -7 -33 -5 -5 2 -25
5 -44 7 -22 2 -43 13 -62 33 -29 32 -90 68 -124 73 -11 2 -25 7 -32 11 -6 4
-15 2 -18 -4z m390 -58 c-8 -14 -25 -14 -25 0 0 5 5 7 10 4 6 -3 10 -1 10 6 0
7 3 10 6 6 3 -3 3 -10 -1 -16z m15 -21 c0 -5 -5 -10 -11 -10 -5 0 -7 5 -4 10
3 6 8 10 11 10 2 0 4 -4 4 -10z m-318 -90 c14 0 34 -23 33 -40 0 -9 -11 -15
-28 -17 -17 -1 -25 2 -21 9 4 6 -1 6 -15 -1 -20 -11 -21 -22 -12 -105 1 -4 10
-6 21 -3 11 3 23 1 26 -4 3 -5 10 -6 16 -3 7 4 8 2 4 -4 -4 -7 -3 -12 3 -12
18 0 1 -28 -20 -33 -22 -6 -103 35 -92 46 3 4 2 7 -4 7 -5 0 -10 7 -11 15 -1
8 -3 22 -4 30 -1 8 -6 15 -11 15 -6 0 -6 5 0 13 5 6 10 23 11 36 1 29 20 50
51 56 13 2 26 7 30 10 3 4 7 1 9 -4 2 -6 8 -11 14 -11z"/>
</g>
</svg>
